<svg width="36" height="36" viewBox="0 0 36 36" fill="none" xmlns="http://www.w3.org/2000/svg">
<rect x="0.25" y="0.25" width="35.5" height="35.5" rx="17.75" fill="white"/>
<path d="M25.25 14.4167L16.0833 23.5833C15.9167 23.75 15.75 23.8333 15.5 23.8333C15.25 23.8333 15.0833 23.75 14.9167 23.5833L10.75 19.4167C10.4167 19.0833 10.4167 18.5833 10.75 18.25C11.0833 17.9167 11.5833 17.9167 11.9167 18.25L15.5 21.8333L24.0833 13.25C24.4167 12.9167 24.9167 12.9167 25.25 13.25C25.5833 13.5833 25.5833 14.0833 25.25 14.4167Z" fill="black"/>
<mask id="mask0_6294_295360" style="mask-type:alpha" maskUnits="userSpaceOnUse" x="10" y="13" width="16" height="11">
<path d="M25.25 14.4167L16.0833 23.5833C15.9167 23.75 15.75 23.8333 15.5 23.8333C15.25 23.8333 15.0833 23.75 14.9167 23.5833L10.75 19.4167C10.4167 19.0833 10.4167 18.5833 10.75 18.25C11.0833 17.9167 11.5833 17.9167 11.9167 18.25L15.5 21.8333L24.0833 13.25C24.4167 12.9167 24.9167 12.9167 25.25 13.25C25.5833 13.5833 25.5833 14.0833 25.25 14.4167Z" fill="white"/>
</mask>
<g mask="url(#mask0_6294_295360)">
<rect x="8" y="8" width="20" height="20" fill="#4FCF55"/>
</g>
<rect x="0.25" y="0.25" width="35.5" height="35.5" rx="17.75" stroke="#90DD93" stroke-width="0.5"/>
</svg>
