<svg width="36" height="36" viewBox="0 0 36 36" fill="none" xmlns="http://www.w3.org/2000/svg">
<rect x="0.25" y="0.25" width="35.5" height="35.5" rx="17.75" fill="white"/>
<path d="M23.5827 22.416C23.916 22.7493 23.916 23.2493 23.5827 23.5827C23.416 23.7493 23.2493 23.8327 22.9993 23.8327C22.7493 23.8327 22.5827 23.7493 22.416 23.5827L17.9993 19.166L13.5827 23.5827C13.416 23.7493 13.2493 23.8327 12.9993 23.8327C12.7493 23.8327 12.5827 23.7493 12.416 23.5827C12.0827 23.2493 12.0827 22.7493 12.416 22.416L16.8327 17.9993L12.416 13.5827C12.0827 13.2493 12.0827 12.7493 12.416 12.416C12.7493 12.0827 13.2493 12.0827 13.5827 12.416L17.9993 16.8327L22.416 12.416C22.7493 12.0827 23.2493 12.0827 23.5827 12.416C23.916 12.7493 23.916 13.2493 23.5827 13.5827L19.166 17.9993L23.5827 22.416Z" fill="black"/>
<mask id="mask0_6294_295362" style="mask-type:alpha" maskUnits="userSpaceOnUse" x="12" y="12" width="12" height="12">
<path d="M23.5827 22.416C23.916 22.7493 23.916 23.2493 23.5827 23.5827C23.416 23.7493 23.2493 23.8327 22.9993 23.8327C22.7493 23.8327 22.5827 23.7493 22.416 23.5827L17.9993 19.166L13.5827 23.5827C13.416 23.7493 13.2493 23.8327 12.9993 23.8327C12.7493 23.8327 12.5827 23.7493 12.416 23.5827C12.0827 23.2493 12.0827 22.7493 12.416 22.416L16.8327 17.9993L12.416 13.5827C12.0827 13.2493 12.0827 12.7493 12.416 12.416C12.7493 12.0827 13.2493 12.0827 13.5827 12.416L17.9993 16.8327L22.416 12.416C22.7493 12.0827 23.2493 12.0827 23.5827 12.416C23.916 12.7493 23.916 13.2493 23.5827 13.5827L19.166 17.9993L23.5827 22.416Z" fill="white"/>
</mask>
<g mask="url(#mask0_6294_295362)">
<rect x="8" y="8" width="20" height="20" fill="#999999"/>
</g>
<rect x="0.25" y="0.25" width="35.5" height="35.5" rx="17.75" stroke="#CCCCCC" stroke-width="0.5"/>
</svg>
