<svg width="20" height="20" viewBox="0 0 20 20" fill="none" xmlns="http://www.w3.org/2000/svg">
<path fill-rule="evenodd" clip-rule="evenodd" d="M16.6667 4.99996H14.1667V4.16663C14.1667 2.74996 13.0833 1.66663 11.6667 1.66663H8.33334C6.91668 1.66663 5.83334 2.74996 5.83334 4.16663V4.99996H3.33334C1.91668 4.99996 0.833344 6.08329 0.833344 7.49996V15.8333C0.833344 17.25 1.91668 18.3333 3.33334 18.3333H16.6667C18.0833 18.3333 19.1667 17.25 19.1667 15.8333V7.49996C19.1667 6.08329 18.0833 4.99996 16.6667 4.99996ZM7.50001 4.16663C7.50001 3.66663 7.83334 3.33329 8.33334 3.33329H11.6667C12.1667 3.33329 12.5 3.66663 12.5 4.16663V4.99996H7.50001V4.16663ZM12.5 16.6666V6.66663H7.50001V16.6666H12.5ZM2.50001 15.8333V7.49996C2.50001 6.99996 2.83334 6.66663 3.33334 6.66663H5.83334V16.6666H3.33334C2.83334 16.6666 2.50001 16.3333 2.50001 15.8333ZM16.6667 16.6666C17.1667 16.6666 17.5 16.3333 17.5 15.8333V7.49996C17.5 6.99996 17.1667 6.66663 16.6667 6.66663H14.1667V16.6666H16.6667Z" fill="black"/>
<mask id="mask0_2_22082" style="mask-type:alpha" maskUnits="userSpaceOnUse" x="0" y="1" width="20" height="18">
<path fill-rule="evenodd" clip-rule="evenodd" d="M16.6667 4.99996H14.1667V4.16663C14.1667 2.74996 13.0833 1.66663 11.6667 1.66663H8.33334C6.91668 1.66663 5.83334 2.74996 5.83334 4.16663V4.99996H3.33334C1.91668 4.99996 0.833344 6.08329 0.833344 7.49996V15.8333C0.833344 17.25 1.91668 18.3333 3.33334 18.3333H16.6667C18.0833 18.3333 19.1667 17.25 19.1667 15.8333V7.49996C19.1667 6.08329 18.0833 4.99996 16.6667 4.99996ZM7.50001 4.16663C7.50001 3.66663 7.83334 3.33329 8.33334 3.33329H11.6667C12.1667 3.33329 12.5 3.66663 12.5 4.16663V4.99996H7.50001V4.16663ZM12.5 16.6666V6.66663H7.50001V16.6666H12.5ZM2.50001 15.8333V7.49996C2.50001 6.99996 2.83334 6.66663 3.33334 6.66663H5.83334V16.6666H3.33334C2.83334 16.6666 2.50001 16.3333 2.50001 15.8333ZM16.6667 16.6666C17.1667 16.6666 17.5 16.3333 17.5 15.8333V7.49996C17.5 6.99996 17.1667 6.66663 16.6667 6.66663H14.1667V16.6666H16.6667Z" fill="white"/>
</mask>
<g mask="url(#mask0_2_22082)">
<rect width="20" height="20" fill="#81C14B"/>
</g>
</svg>
