<svg width="20" height="20" viewBox="0 0 20 20" fill="none" xmlns="http://www.w3.org/2000/svg">
<path fill-rule="evenodd" clip-rule="evenodd" d="M15.8333 2.50004H14.1667V1.66671C14.1667 1.16671 13.8333 0.833374 13.3333 0.833374C12.8333 0.833374 12.5 1.16671 12.5 1.66671V2.50004H7.49999V1.66671C7.49999 1.16671 7.16666 0.833374 6.66666 0.833374C6.16666 0.833374 5.83332 1.16671 5.83332 1.66671V2.50004H4.16666C2.74999 2.50004 1.66666 3.58337 1.66666 5.00004V16.6667C1.66666 18.0834 2.74999 19.1667 4.16666 19.1667H15.8333C17.25 19.1667 18.3333 18.0834 18.3333 16.6667V5.00004C18.3333 3.58337 17.25 2.50004 15.8333 2.50004ZM4.16666 4.16671H5.83332V5.00004C5.83332 5.50004 6.16666 5.83337 6.66666 5.83337C7.16666 5.83337 7.49999 5.50004 7.49999 5.00004V4.16671H12.5V5.00004C12.5 5.50004 12.8333 5.83337 13.3333 5.83337C13.8333 5.83337 14.1667 5.50004 14.1667 5.00004V4.16671H15.8333C16.3333 4.16671 16.6667 4.50004 16.6667 5.00004V7.50004H3.33332V5.00004C3.33332 4.50004 3.66666 4.16671 4.16666 4.16671ZM4.16666 17.5H15.8333C16.3333 17.5 16.6667 17.1667 16.6667 16.6667V9.16671H3.33332V16.6667C3.33332 17.1667 3.66666 17.5 4.16666 17.5Z" fill="black"/>
<mask id="mask0_2_22081" style="mask-type:alpha" maskUnits="userSpaceOnUse" x="1" y="0" width="18" height="20">
<path fill-rule="evenodd" clip-rule="evenodd" d="M15.8333 2.50004H14.1667V1.66671C14.1667 1.16671 13.8333 0.833374 13.3333 0.833374C12.8333 0.833374 12.5 1.16671 12.5 1.66671V2.50004H7.49999V1.66671C7.49999 1.16671 7.16666 0.833374 6.66666 0.833374C6.16666 0.833374 5.83332 1.16671 5.83332 1.66671V2.50004H4.16666C2.74999 2.50004 1.66666 3.58337 1.66666 5.00004V16.6667C1.66666 18.0834 2.74999 19.1667 4.16666 19.1667H15.8333C17.25 19.1667 18.3333 18.0834 18.3333 16.6667V5.00004C18.3333 3.58337 17.25 2.50004 15.8333 2.50004ZM4.16666 4.16671H5.83332V5.00004C5.83332 5.50004 6.16666 5.83337 6.66666 5.83337C7.16666 5.83337 7.49999 5.50004 7.49999 5.00004V4.16671H12.5V5.00004C12.5 5.50004 12.8333 5.83337 13.3333 5.83337C13.8333 5.83337 14.1667 5.50004 14.1667 5.00004V4.16671H15.8333C16.3333 4.16671 16.6667 4.50004 16.6667 5.00004V7.50004H3.33332V5.00004C3.33332 4.50004 3.66666 4.16671 4.16666 4.16671ZM4.16666 17.5H15.8333C16.3333 17.5 16.6667 17.1667 16.6667 16.6667V9.16671H3.33332V16.6667C3.33332 17.1667 3.66666 17.5 4.16666 17.5Z" fill="white"/>
</mask>
<g mask="url(#mask0_2_22081)">
<rect width="20" height="20" fill="#81C14B"/>
</g>
</svg>
