<svg width="20" height="20" viewBox="0 0 20 20" fill="none" xmlns="http://www.w3.org/2000/svg">
<path fill-rule="evenodd" clip-rule="evenodd" d="M9.99999 1.66663C5.41666 1.66663 1.66666 5.41663 1.66666 9.99996V11.6666V15V15.8333C1.66666 17.25 2.74999 18.3333 4.16666 18.3333H4.99999C6.41666 18.3333 7.49999 17.25 7.49999 15.8333V13.3333C7.49999 11.9166 6.41666 10.8333 4.99999 10.8333H3.33332V9.99996C3.33332 6.33329 6.33332 3.33329 9.99999 3.33329C13.6667 3.33329 16.6667 6.33329 16.6667 9.99996V10.8333H15C13.5833 10.8333 12.5 11.9166 12.5 13.3333V15.8333C12.5 17.25 13.5833 18.3333 15 18.3333H15.8333C17.25 18.3333 18.3333 17.25 18.3333 15.8333V15V11.6666V9.99996C18.3333 5.41663 14.5833 1.66663 9.99999 1.66663ZM4.99999 12.5C5.49999 12.5 5.83332 12.8333 5.83332 13.3333V15.8333C5.83332 16.3333 5.49999 16.6666 4.99999 16.6666H4.16666C3.66666 16.6666 3.33332 16.3333 3.33332 15.8333V15V12.5H4.99999ZM15.8333 16.6666C16.3333 16.6666 16.6667 16.3333 16.6667 15.8333V15V12.5H15C14.5 12.5 14.1667 12.8333 14.1667 13.3333V15.8333C14.1667 16.3333 14.5 16.6666 15 16.6666H15.8333Z" fill="black"/>
<mask id="mask0_2_22080" style="mask-type:alpha" maskUnits="userSpaceOnUse" x="1" y="1" width="18" height="18">
<path fill-rule="evenodd" clip-rule="evenodd" d="M9.99999 1.66663C5.41666 1.66663 1.66666 5.41663 1.66666 9.99996V11.6666V15V15.8333C1.66666 17.25 2.74999 18.3333 4.16666 18.3333H4.99999C6.41666 18.3333 7.49999 17.25 7.49999 15.8333V13.3333C7.49999 11.9166 6.41666 10.8333 4.99999 10.8333H3.33332V9.99996C3.33332 6.33329 6.33332 3.33329 9.99999 3.33329C13.6667 3.33329 16.6667 6.33329 16.6667 9.99996V10.8333H15C13.5833 10.8333 12.5 11.9166 12.5 13.3333V15.8333C12.5 17.25 13.5833 18.3333 15 18.3333H15.8333C17.25 18.3333 18.3333 17.25 18.3333 15.8333V15V11.6666V9.99996C18.3333 5.41663 14.5833 1.66663 9.99999 1.66663ZM4.99999 12.5C5.49999 12.5 5.83332 12.8333 5.83332 13.3333V15.8333C5.83332 16.3333 5.49999 16.6666 4.99999 16.6666H4.16666C3.66666 16.6666 3.33332 16.3333 3.33332 15.8333V15V12.5H4.99999ZM15.8333 16.6666C16.3333 16.6666 16.6667 16.3333 16.6667 15.8333V15V12.5H15C14.5 12.5 14.1667 12.8333 14.1667 13.3333V15.8333C14.1667 16.3333 14.5 16.6666 15 16.6666H15.8333Z" fill="white"/>
</mask>
<g mask="url(#mask0_2_22080)">
<rect width="20" height="20" fill="#81C14B"/>
</g>
</svg>
