<svg width="20" height="20" viewBox="0 0 20 20" fill="none" xmlns="http://www.w3.org/2000/svg">
<path fill-rule="evenodd" clip-rule="evenodd" d="M18 6.84737L10.5 1.02066C10.1667 0.770945 9.74999 0.770945 9.49999 1.02066L1.99999 6.84737C1.74999 7.01385 1.66666 7.26357 1.66666 7.51328V16.6695C1.66666 18.0846 2.74999 19.1667 4.16666 19.1667H15.8333C17.25 19.1667 18.3333 18.0846 18.3333 16.6695V7.51328C18.3333 7.26357 18.25 7.01385 18 6.84737ZM11.6667 17.5019H8.33332V10.8428H11.6667V17.5019ZM15.8333 17.5019C16.3333 17.5019 16.6667 17.169 16.6667 16.6695V7.92948L9.99999 2.76867L3.33332 7.92948V16.6695C3.33332 17.169 3.66666 17.5019 4.16666 17.5019H6.66666V10.0104C6.66666 9.51101 6.99999 9.17806 7.49999 9.17806H12.5C13 9.17806 13.3333 9.51101 13.3333 10.0104V17.5019H15.8333Z" fill="black"/>
<mask id="mask0_2_22079" style="mask-type:alpha" maskUnits="userSpaceOnUse" x="1" y="0" width="18" height="20">
<path fill-rule="evenodd" clip-rule="evenodd" d="M18 6.84737L10.5 1.02066C10.1667 0.770945 9.74999 0.770945 9.49999 1.02066L1.99999 6.84737C1.74999 7.01385 1.66666 7.26357 1.66666 7.51328V16.6695C1.66666 18.0846 2.74999 19.1667 4.16666 19.1667H15.8333C17.25 19.1667 18.3333 18.0846 18.3333 16.6695V7.51328C18.3333 7.26357 18.25 7.01385 18 6.84737ZM11.6667 17.5019H8.33332V10.8428H11.6667V17.5019ZM15.8333 17.5019C16.3333 17.5019 16.6667 17.169 16.6667 16.6695V7.92948L9.99999 2.76867L3.33332 7.92948V16.6695C3.33332 17.169 3.66666 17.5019 4.16666 17.5019H6.66666V10.0104C6.66666 9.51101 6.99999 9.17806 7.49999 9.17806H12.5C13 9.17806 13.3333 9.51101 13.3333 10.0104V17.5019H15.8333Z" fill="white"/>
</mask>
<g mask="url(#mask0_2_22079)">
<rect width="20" height="20" fill="#81C14B"/>
</g>
</svg>
