<svg width="20" height="20" viewBox="0 0 20 20" fill="none" xmlns="http://www.w3.org/2000/svg">
<path fill-rule="evenodd" clip-rule="evenodd" d="M18.4711 6.84447C18.8033 6.92767 19.0525 7.09407 19.1355 7.42686C19.2186 7.67646 19.1355 8.00925 18.8864 8.17565L15.0661 11.9196L15.9796 17.2443C16.0627 17.5771 15.8966 17.9099 15.6474 18.0763C15.4813 18.1595 15.3152 18.2427 15.1491 18.2427H14.7339L10 15.7467L5.26615 18.2427C4.93395 18.4091 4.60175 18.3259 4.3526 18.1595C4.10345 17.9931 3.93734 17.6603 4.0204 17.3275L4.93395 12.0028L1.11364 8.25885C0.864487 8.09245 0.781437 7.75965 0.864487 7.42686C1.03059 7.09407 1.27974 6.84447 1.61194 6.84447L6.8441 6.01248L9.25256 1.27017C9.50171 0.687777 10.4983 0.687777 10.7475 1.27017L13.1559 6.09568L18.4711 6.84447ZM13.322 11.8364C13.322 11.5868 13.4051 11.3372 13.5712 11.0876L16.561 8.17565L12.4915 7.59326C12.1593 7.59326 11.9102 7.42686 11.8271 7.17726L10 3.51653L8.1729 7.26046C8.0068 7.42686 7.75765 7.67646 7.5085 7.67646L3.43904 8.25885L6.42885 11.0876C6.59495 11.3372 6.678 11.5868 6.678 11.8364L5.93055 15.9131L9.58476 13.9995C9.83391 13.8331 10.0831 13.8331 10.3322 13.9995L13.9864 15.9131L13.322 11.8364Z" fill="black"/>
<mask id="mask0_2_22077" style="mask-type:alpha" maskUnits="userSpaceOnUse" x="0" y="0" width="20" height="19">
<path fill-rule="evenodd" clip-rule="evenodd" d="M18.4711 6.84447C18.8033 6.92767 19.0525 7.09407 19.1355 7.42686C19.2186 7.67646 19.1355 8.00925 18.8864 8.17565L15.0661 11.9196L15.9796 17.2443C16.0627 17.5771 15.8966 17.9099 15.6474 18.0763C15.4813 18.1595 15.3152 18.2427 15.1491 18.2427H14.7339L10 15.7467L5.26615 18.2427C4.93395 18.4091 4.60175 18.3259 4.3526 18.1595C4.10345 17.9931 3.93734 17.6603 4.0204 17.3275L4.93395 12.0028L1.11364 8.25885C0.864487 8.09245 0.781437 7.75965 0.864487 7.42686C1.03059 7.09407 1.27974 6.84447 1.61194 6.84447L6.8441 6.01248L9.25256 1.27017C9.50171 0.687777 10.4983 0.687777 10.7475 1.27017L13.1559 6.09568L18.4711 6.84447ZM13.322 11.8364C13.322 11.5868 13.4051 11.3372 13.5712 11.0876L16.561 8.17565L12.4915 7.59326C12.1593 7.59326 11.9102 7.42686 11.8271 7.17726L10 3.51653L8.1729 7.26046C8.0068 7.42686 7.75765 7.67646 7.5085 7.67646L3.43904 8.25885L6.42885 11.0876C6.59495 11.3372 6.678 11.5868 6.678 11.8364L5.93055 15.9131L9.58476 13.9995C9.83391 13.8331 10.0831 13.8331 10.3322 13.9995L13.9864 15.9131L13.322 11.8364Z" fill="white"/>
</mask>
<g mask="url(#mask0_2_22077)">
<rect width="20" height="20" fill="#81C14B"/>
</g>
</svg>
