<svg width="20" height="20" viewBox="0 0 20 20" fill="none" xmlns="http://www.w3.org/2000/svg">
<path fill-rule="evenodd" clip-rule="evenodd" d="M7.08333 1.66663C4.75 1.66663 2.91667 3.49996 2.91667 5.83329C2.91667 8.16663 4.75 9.99996 7.08333 9.99996C9.41667 9.99996 11.25 8.16663 11.25 5.83329C11.25 3.49996 9.41667 1.66663 7.08333 1.66663ZM14.1667 17.5V15.8333C14.1667 13.5 12.3333 11.6666 10 11.6666H4.16667C1.83333 11.6666 0 13.5 0 15.8333V17.5C0 18 0.333333 18.3333 0.833333 18.3333C1.33333 18.3333 1.66667 18 1.66667 17.5V15.8333C1.66667 14.4166 2.75 13.3333 4.16667 13.3333H10C11.4167 13.3333 12.5 14.4166 12.5 15.8333V17.5C12.5 18 12.8333 18.3333 13.3333 18.3333C13.8333 18.3333 14.1667 18 14.1667 17.5ZM4.58333 5.83329C4.58333 7.24996 5.66667 8.33329 7.08333 8.33329C8.5 8.33329 9.58333 7.24996 9.58333 5.83329C9.58333 4.41663 8.5 3.33329 7.08333 3.33329C5.66667 3.33329 4.58333 4.41663 4.58333 5.83329ZM18.5833 6.91663C18.9167 6.58329 19.4167 6.58329 19.75 6.91663C20.0833 7.24996 20.0833 7.74996 19.75 8.08329L16.4167 11.4166C16.25 11.5833 16 11.6666 15.8333 11.6666C15.6667 11.6666 15.4167 11.5833 15.25 11.4166L13.5833 9.74996C13.25 9.41663 13.25 8.91663 13.5833 8.58329C13.9167 8.24996 14.4167 8.24996 14.75 8.58329L15.8333 9.66663L18.5833 6.91663Z" fill="black"/>
<mask id="mask0_2_22076" style="mask-type:alpha" maskUnits="userSpaceOnUse" x="0" y="1" width="20" height="18">
<path fill-rule="evenodd" clip-rule="evenodd" d="M7.08333 1.66663C4.75 1.66663 2.91667 3.49996 2.91667 5.83329C2.91667 8.16663 4.75 9.99996 7.08333 9.99996C9.41667 9.99996 11.25 8.16663 11.25 5.83329C11.25 3.49996 9.41667 1.66663 7.08333 1.66663ZM14.1667 17.5V15.8333C14.1667 13.5 12.3333 11.6666 10 11.6666H4.16667C1.83333 11.6666 0 13.5 0 15.8333V17.5C0 18 0.333333 18.3333 0.833333 18.3333C1.33333 18.3333 1.66667 18 1.66667 17.5V15.8333C1.66667 14.4166 2.75 13.3333 4.16667 13.3333H10C11.4167 13.3333 12.5 14.4166 12.5 15.8333V17.5C12.5 18 12.8333 18.3333 13.3333 18.3333C13.8333 18.3333 14.1667 18 14.1667 17.5ZM4.58333 5.83329C4.58333 7.24996 5.66667 8.33329 7.08333 8.33329C8.5 8.33329 9.58333 7.24996 9.58333 5.83329C9.58333 4.41663 8.5 3.33329 7.08333 3.33329C5.66667 3.33329 4.58333 4.41663 4.58333 5.83329ZM18.5833 6.91663C18.9167 6.58329 19.4167 6.58329 19.75 6.91663C20.0833 7.24996 20.0833 7.74996 19.75 8.08329L16.4167 11.4166C16.25 11.5833 16 11.6666 15.8333 11.6666C15.6667 11.6666 15.4167 11.5833 15.25 11.4166L13.5833 9.74996C13.25 9.41663 13.25 8.91663 13.5833 8.58329C13.9167 8.24996 14.4167 8.24996 14.75 8.58329L15.8333 9.66663L18.5833 6.91663Z" fill="white"/>
</mask>
<g mask="url(#mask0_2_22076)">
<rect width="20" height="20" fill="#81C14B"/>
</g>
</svg>
