<svg width="20" height="20" viewBox="0 0 20 20" fill="none" xmlns="http://www.w3.org/2000/svg">
<path fill-rule="evenodd" clip-rule="evenodd" d="M17.4932 7.50004C17.8263 7.50004 18.076 7.66671 18.2426 8.00004C18.4091 8.25004 18.3258 8.58337 18.1593 8.83337L9.83347 18.8334C9.66696 19.0834 9.41718 19.1667 9.16741 19.1667C9.08415 19.1667 8.91763 19.1667 8.83437 19.0834C8.50134 19 8.25157 18.5834 8.33482 18.25L9.08415 12.5H2.50675C2.17371 12.5 1.92394 12.3334 1.75742 12.0834C1.59091 11.75 1.67416 11.4167 1.84068 11.1667L10.1665 1.16671C10.4163 0.833374 10.8326 0.750041 11.1656 0.916707C11.4986 1.00004 11.7484 1.41671 11.6652 1.75004L10.9158 7.50004H17.4932ZM10.8327 11.75L10.3331 15.5834L15.6617 9.16669H9.91684C9.75033 9.16669 9.50055 9.08335 9.33403 8.91669C9.25078 8.75002 9.16752 8.50002 9.16752 8.25002L9.58381 4.41669L4.25528 10.8334H10.0001C10.2499 10.8334 10.4997 10.9167 10.6662 11.0834C10.7494 11.25 10.8327 11.5 10.8327 11.75Z" fill="black"/>
<mask id="mask0_2_22074" style="mask-type:alpha" maskUnits="userSpaceOnUse" x="1" y="0" width="18" height="20">
<path fill-rule="evenodd" clip-rule="evenodd" d="M17.4932 7.50004C17.8263 7.50004 18.076 7.66671 18.2426 8.00004C18.4091 8.25004 18.3258 8.58337 18.1593 8.83337L9.83347 18.8334C9.66696 19.0834 9.41718 19.1667 9.16741 19.1667C9.08415 19.1667 8.91763 19.1667 8.83437 19.0834C8.50134 19 8.25157 18.5834 8.33482 18.25L9.08415 12.5H2.50675C2.17371 12.5 1.92394 12.3334 1.75742 12.0834C1.59091 11.75 1.67416 11.4167 1.84068 11.1667L10.1665 1.16671C10.4163 0.833374 10.8326 0.750041 11.1656 0.916707C11.4986 1.00004 11.7484 1.41671 11.6652 1.75004L10.9158 7.50004H17.4932ZM10.8327 11.75L10.3331 15.5834L15.6617 9.16669H9.91684C9.75033 9.16669 9.50055 9.08335 9.33403 8.91669C9.25078 8.75002 9.16752 8.50002 9.16752 8.25002L9.58381 4.41669L4.25528 10.8334H10.0001C10.2499 10.8334 10.4997 10.9167 10.6662 11.0834C10.7494 11.25 10.8327 11.5 10.8327 11.75Z" fill="white"/>
</mask>
<g mask="url(#mask0_2_22074)">
<rect width="20" height="20" fill="#81C14B"/>
</g>
</svg>
