<svg width="16" height="16" viewBox="0 0 16 16" fill="none" xmlns="http://www.w3.org/2000/svg">
<g clip-path="url(#clip0_808_80973)">
<path d="M2.9909 15.9531C2.69224 15.9531 2.39144 15.9061 2.09917 15.8123C1.3589 15.5755 0.757304 15.0635 0.403171 14.3723C-0.256029 13.088 0.13437 11.4944 1.31624 10.6667C1.3525 10.6411 1.40157 10.6069 2.44904 10.0693C2.42557 10.0565 2.4021 10.0459 2.37864 10.0331C2.34664 10.016 2.3125 9.99895 2.2805 9.97974C2.23144 9.95201 2.18664 9.92428 2.1397 9.89441C2.10557 9.87308 2.07144 9.84961 2.0373 9.82615C1.99677 9.79628 1.95624 9.76642 1.91784 9.73655C1.88157 9.70882 1.84744 9.67895 1.81117 9.64908C1.7749 9.61921 1.7429 9.58721 1.70877 9.55521C1.67464 9.52108 1.63837 9.48695 1.60637 9.45281C1.57437 9.41868 1.5445 9.38454 1.51464 9.35041C1.48264 9.31414 1.45277 9.27788 1.4229 9.23948C1.3909 9.19895 1.36317 9.15841 1.3333 9.11575L1.3269 9.10721C1.30557 9.07521 1.2821 9.04321 1.2629 9.01121C1.2309 8.96001 1.20104 8.90881 1.17117 8.85548L1.16477 8.84268C1.1541 8.82561 1.14344 8.80641 1.1349 8.78935C1.1285 8.77868 1.12424 8.76801 1.11997 8.75734C1.09224 8.69974 1.06664 8.64215 1.04104 8.58241L1.0325 8.56108C1.02397 8.53975 1.01544 8.52055 1.0069 8.49921C0.983438 8.43948 0.964238 8.37548 0.945037 8.31361L0.938638 8.29014C0.932238 8.26881 0.923705 8.24535 0.917305 8.22188C0.902371 8.16855 0.891703 8.11521 0.881037 8.05975L0.872503 8.02135C0.866103 7.99361 0.859704 7.96801 0.855438 7.94028C0.849038 7.89761 0.842637 7.85708 0.838371 7.81441L0.831971 7.75468C0.827704 7.72055 0.823437 7.68641 0.821304 7.65228C0.81917 7.61814 0.819171 7.58401 0.817038 7.54775V7.49441C0.814904 7.44961 0.814904 7.40695 0.817038 7.36215C0.817038 7.33015 0.821304 7.30028 0.823438 7.26828L0.825571 7.24055C0.829838 7.18295 0.834105 7.13175 0.840505 7.08268C0.842638 7.06775 0.842637 7.05495 0.844771 7.04215C0.849037 7.01655 0.853303 6.99308 0.85757 6.96961L0.861838 6.94828C0.872504 6.89068 0.881037 6.84374 0.891704 6.79894C0.902371 6.74988 0.917304 6.70081 0.930104 6.65174L0.93437 6.64108C0.945037 6.60268 0.955704 6.56641 0.968504 6.53014C0.985571 6.47894 1.00477 6.42775 1.0261 6.37655C1.04104 6.34028 1.05384 6.30615 1.0709 6.26988C1.09437 6.21868 1.11784 6.16961 1.14344 6.12055C1.1605 6.08641 1.1797 6.05228 1.1989 6.01601C1.2245 5.97121 1.25224 5.92641 1.27997 5.88374C1.30344 5.84748 1.3269 5.81121 1.3525 5.77495C1.38024 5.73655 1.40797 5.70028 1.43784 5.66188C1.4677 5.62348 1.4997 5.58508 1.5317 5.54881C1.55944 5.51681 1.5893 5.48481 1.61704 5.45495C1.6533 5.41655 1.68957 5.38028 1.7301 5.34401C1.75997 5.31628 1.79197 5.28855 1.82184 5.26081C1.86237 5.22668 1.90077 5.19255 1.94344 5.16055C1.97757 5.13281 2.01384 5.10721 2.0501 5.08161C2.0949 5.05175 2.13117 5.02401 2.1717 5.00055C2.2165 4.97281 2.26557 4.94508 2.3125 4.91948L2.32957 4.90881C2.34877 4.89601 2.3701 4.88535 2.39144 4.87468L11.1296 0.390412C12.5546 -0.341321 14.3104 0.221879 15.0442 1.64695C15.7269 2.97388 15.3002 4.59094 14.0544 5.40588C14.0309 5.42081 13.9861 5.45068 12.9322 5.99468C13.9882 6.51521 14.6538 7.64588 14.5344 8.88108L14.5322 8.90454C14.5301 8.93014 14.528 8.95361 14.5258 8.97921C14.5258 8.99201 14.5237 9.00481 14.5216 9.01761C14.5194 9.03681 14.5152 9.05814 14.5109 9.07948L14.5088 9.09441C14.4981 9.16055 14.4853 9.22668 14.4704 9.29068C14.4661 9.30348 14.464 9.31628 14.4618 9.32695L14.4597 9.33761C14.2528 10.144 13.713 10.8245 12.9749 11.2021L4.3221 15.6309C3.8997 15.8443 3.44744 15.9531 2.9909 15.9531ZM1.72797 11.2683C0.849037 11.8891 0.558904 13.0795 1.0517 14.0395C1.59997 15.1083 2.91624 15.5285 3.9829 14.9803L12.6357 10.5515C13.1861 10.2677 13.5914 9.75788 13.7472 9.15201L13.7557 9.11575C13.7664 9.06881 13.777 9.01761 13.7856 8.96855V8.96641C13.7877 8.95148 13.792 8.93655 13.7941 8.92161L13.7962 8.91308C13.7962 8.90454 13.7984 8.89601 13.7984 8.88748C13.8005 8.87468 13.8005 8.85975 13.8026 8.84268L13.8048 8.81068C13.9178 7.64801 13.1029 6.61121 11.9509 6.44481L10.7818 6.27628L11.857 5.72161C13.0752 5.09655 13.5829 4.82988 13.6554 4.78935C14.5856 4.17708 14.9013 2.96961 14.3914 1.97761C13.8432 0.908812 12.5269 0.488545 11.4602 1.03681L2.7221 5.52108C2.7157 5.52321 2.71144 5.52748 2.70504 5.53174C2.69224 5.54028 2.6773 5.54881 2.6645 5.55521C2.62824 5.57441 2.5941 5.59361 2.55997 5.61708C2.5301 5.63628 2.50237 5.65548 2.47464 5.67468C2.44264 5.69815 2.4149 5.71735 2.3893 5.73655C2.3573 5.76002 2.32744 5.78561 2.2997 5.81121C2.27624 5.83254 2.25277 5.85175 2.23144 5.87308C2.20157 5.90081 2.17384 5.92855 2.14824 5.95628C2.1269 5.97975 2.10557 6.00321 2.08424 6.02668C2.06077 6.05441 2.0373 6.08214 2.01384 6.11201C1.9925 6.13974 1.97117 6.16748 1.94984 6.19521C1.93064 6.22081 1.91357 6.24855 1.89437 6.27628C1.87304 6.30828 1.8517 6.34241 1.8325 6.37655C1.81757 6.40215 1.80477 6.42775 1.78984 6.45335C1.77064 6.49175 1.75144 6.52801 1.73437 6.56641C1.7237 6.59201 1.71304 6.61974 1.70237 6.64534C1.68744 6.68374 1.6725 6.72215 1.6597 6.76055C1.65117 6.78828 1.64264 6.81388 1.63624 6.84161L1.63197 6.85228C1.6213 6.88854 1.61064 6.92481 1.6021 6.96108C1.59357 6.99521 1.58717 7.02934 1.5829 7.06348C1.57864 7.08908 1.57437 7.10401 1.57224 7.12108C1.5701 7.12748 1.5701 7.13388 1.56797 7.13814C1.56797 7.14881 1.56584 7.15948 1.56584 7.16801C1.55944 7.20855 1.5573 7.24695 1.55517 7.28748L1.5509 7.33014C1.54877 7.34934 1.54664 7.36854 1.54664 7.38561C1.54664 7.41548 1.54664 7.44748 1.54664 7.47734L1.54877 7.53921C1.54877 7.56054 1.54877 7.58188 1.5509 7.60322C1.55304 7.62455 1.55517 7.64374 1.5573 7.66508L1.56584 7.73335C1.56797 7.76108 1.57224 7.78882 1.5765 7.81655C1.57864 7.82935 1.5829 7.84428 1.58504 7.85921L1.5957 7.91041C1.60424 7.94881 1.61277 7.98935 1.6213 8.02775C1.62344 8.03841 1.6277 8.04908 1.63197 8.05761L1.64264 8.09388C1.65757 8.14081 1.6725 8.18774 1.68957 8.23254C1.69384 8.24321 1.6981 8.25175 1.70237 8.26241L1.7173 8.29441C1.7365 8.34135 1.7557 8.38614 1.77917 8.43094C1.78344 8.43734 1.78557 8.44588 1.78984 8.45441L1.7941 8.46081C1.80264 8.47361 1.80904 8.48641 1.81757 8.49921C1.8389 8.53974 1.86024 8.57815 1.88584 8.61655C1.90077 8.64002 1.9157 8.66134 1.93277 8.68481L1.93917 8.69548C1.9605 8.72748 1.98397 8.75948 2.0053 8.78935C2.02664 8.81708 2.0501 8.84481 2.07357 8.87254C2.09704 8.89814 2.11837 8.92375 2.14184 8.94935C2.16744 8.97495 2.19304 9.00054 2.21864 9.02614C2.24424 9.04961 2.26984 9.07308 2.29544 9.09655C2.32104 9.11788 2.34877 9.14135 2.37437 9.16268C2.40424 9.18615 2.4341 9.20961 2.46397 9.23094C2.48957 9.24801 2.51517 9.26508 2.54077 9.28215C2.5749 9.30561 2.61117 9.32695 2.6453 9.34614C2.66877 9.35894 2.69437 9.37174 2.71784 9.38454C2.75624 9.40374 2.79464 9.42295 2.83517 9.44215C2.85864 9.45281 2.88424 9.46348 2.90984 9.47201C2.95037 9.48908 2.9909 9.50401 3.03144 9.51681C3.05704 9.52534 3.08264 9.53388 3.11037 9.54028L3.12104 9.54454C3.1573 9.55521 3.19357 9.56588 3.23197 9.57441C3.26824 9.58295 3.30237 9.58935 3.3365 9.59575C3.35997 9.60001 3.3749 9.60215 3.38984 9.60641C3.39837 9.60855 3.4069 9.61068 3.41544 9.61068L4.6101 9.78348L3.41757 10.3957C2.0821 11.0741 1.78344 11.2363 1.72797 11.2683Z" fill="#4D4D4D"/>
<path d="M9.81938 8.51627L6.68765 10.3253C6.57885 10.3872 6.46152 10.4107 6.35058 10.4021C6.06259 10.3787 5.81085 10.1419 5.81085 9.81974V9.50187L7.51538 8.5184C7.56445 8.49067 7.60712 8.45653 7.64552 8.41813C7.89938 8.15787 7.85672 7.70347 7.51538 7.5072L5.81085 6.52373V6.20587C5.81085 5.75574 6.29725 5.47414 6.68765 5.70027L9.81938 7.50934C10.2098 7.72907 10.2098 8.29227 9.81938 8.51627Z" fill="#4D4D4D"/>
<path d="M7.64338 8.41602L6.35059 10.4021C6.06259 10.3787 5.81085 10.1419 5.81085 9.81975V9.50188L7.51538 8.51841C7.56445 8.48854 7.60712 8.45442 7.64338 8.41602Z" fill="#303030"/>
<path d="M7.00765 8.51628L5.81085 9.20748V6.81174L7.00765 7.50295C7.39805 7.72908 7.39805 8.29228 7.00765 8.51628Z" fill="#4D4D4D"/>
</g>
<defs>
<clipPath id="clip0_808_80973">
<rect width="15.36" height="16" fill="white"/>
</clipPath>
</defs>
</svg>
