<svg width="14" height="15" viewBox="0 0 14 15" fill="none" xmlns="http://www.w3.org/2000/svg">
<path d="M13 7.44695C13.0023 8.32686 12.7967 9.19487 12.4 9.98028C11.9296 10.9214 11.2065 11.7131 10.3116 12.2665C9.41675 12.8199 8.38548 13.1132 7.33332 13.1136C6.45341 13.1159 5.5854 12.9103 4.79999 12.5136L1 13.7803L2.26666 9.98028C1.86995 9.19487 1.66437 8.32686 1.66667 7.44695C1.66707 6.39479 1.96041 5.36352 2.51381 4.46865C3.06721 3.57379 3.85883 2.85067 4.79999 2.38029C5.5854 1.98358 6.45341 1.778 7.33332 1.78029H7.66666C9.05622 1.85695 10.3687 2.44347 11.3527 3.42753C12.3368 4.41159 12.9233 5.72405 13 7.11362V7.44695Z" stroke="#4D4D4D" stroke-width="1.66667" stroke-linecap="round" stroke-linejoin="round"/>
</svg>
