<svg width="12" height="13" viewBox="0 0 12 13" fill="none" xmlns="http://www.w3.org/2000/svg">
<path fill-rule="evenodd" clip-rule="evenodd" d="M6 1.78027C9.75783 1.78027 11.8622 5.88027 11.9624 6.08027C12.0125 6.18027 12.0125 6.38027 11.9624 6.48027C11.8622 6.68027 9.75783 10.7803 6 10.7803C2.46293 10.7803 0.390745 7.14785 0.0759184 6.59597C0.056269 6.56153 0.0434652 6.53909 0.0375783 6.53027C-0.0125261 6.38027 -0.0125261 6.23027 0.0375783 6.08027C0.137787 5.88027 2.24217 1.78027 6 1.78027ZM1.03967 6.28027C1.54071 7.08027 3.29436 9.78027 6 9.78027C8.70564 9.78027 10.4593 7.08027 10.9603 6.28027C10.4593 5.48027 8.70564 2.78027 6 2.78027C3.29436 2.78027 1.49061 5.48027 1.03967 6.28027ZM6 4.28027C4.8977 4.28027 3.99582 5.18027 3.99582 6.28027C3.99582 7.38027 4.8977 8.28027 6 8.28027C7.1023 8.28027 8.00418 7.38027 8.00418 6.28027C8.00418 5.18027 7.1023 4.28027 6 4.28027ZM4.99791 6.28027C4.99791 6.83027 5.44885 7.28027 6 7.28027C6.55115 7.28027 7.00209 6.83027 7.00209 6.28027C7.00209 5.73027 6.55115 5.28027 6 5.28027C5.44885 5.28027 4.99791 5.73027 4.99791 6.28027Z" fill="#4D4D4D"/>
<mask id="mask0_6091_279193" style="mask-type:alpha" maskUnits="userSpaceOnUse" x="0" y="1" width="12" height="10">
<path fill-rule="evenodd" clip-rule="evenodd" d="M6 1.78027C9.75783 1.78027 11.8622 5.88027 11.9624 6.08027C12.0125 6.18027 12.0125 6.38027 11.9624 6.48027C11.8622 6.68027 9.75783 10.7803 6 10.7803C2.46293 10.7803 0.390745 7.14785 0.0759184 6.59597C0.056269 6.56153 0.0434652 6.53909 0.0375783 6.53027C-0.0125261 6.38027 -0.0125261 6.23027 0.0375783 6.08027C0.137787 5.88027 2.24217 1.78027 6 1.78027ZM1.03967 6.28027C1.54071 7.08027 3.29436 9.78027 6 9.78027C8.70564 9.78027 10.4593 7.08027 10.9603 6.28027C10.4593 5.48027 8.70564 2.78027 6 2.78027C3.29436 2.78027 1.49061 5.48027 1.03967 6.28027ZM6 4.28027C4.8977 4.28027 3.99582 5.18027 3.99582 6.28027C3.99582 7.38027 4.8977 8.28027 6 8.28027C7.1023 8.28027 8.00418 7.38027 8.00418 6.28027C8.00418 5.18027 7.1023 4.28027 6 4.28027ZM4.99791 6.28027C4.99791 6.83027 5.44885 7.28027 6 7.28027C6.55115 7.28027 7.00209 6.83027 7.00209 6.28027C7.00209 5.73027 6.55115 5.28027 6 5.28027C5.44885 5.28027 4.99791 5.73027 4.99791 6.28027Z" fill="white"/>
</mask>
<g mask="url(#mask0_6091_279193)">
<rect y="0.280273" width="12" height="12" fill="#4D4D4D"/>
</g>
</svg>
