<svg width="12" height="17" viewBox="0 0 12 17" fill="none" xmlns="http://www.w3.org/2000/svg">
<path d="M6.46545 1.14201L6.476 1.1209L6.58082 0.911239C6.58082 0.911236 6.58082 0.911233 6.58082 0.911231C6.72975 0.61328 6.96379 0.388916 7.25049 0.277677C7.42928 0.208285 7.64113 0.176987 7.84125 0.180546C8.04019 0.184084 8.23821 0.222291 8.38581 0.301499C8.38581 0.3015 8.38581 0.301501 8.38581 0.301501L8.33853 0.389615C8.68677 0.576481 8.88207 0.793973 9.00141 1.12775L9.09557 1.09408C9.14179 1.22338 9.16353 1.32702 9.17482 1.71461C9.18608 2.10097 9.18706 2.78089 9.18706 4.06826C9.18706 5.39019 9.18755 6.06372 9.19859 6.41809C9.20416 6.59684 9.21231 6.68716 9.22251 6.73692C9.22734 6.7605 9.23175 6.77023 9.23383 6.77406C9.23545 6.77707 9.23722 6.77972 9.2455 6.78818C9.25786 6.80082 9.281 6.81662 9.31034 6.82934C9.3399 6.84216 9.36588 6.84759 9.38106 6.84767C9.60085 6.84886 9.88532 6.9604 10.1397 7.11105C10.3959 7.26276 10.6422 7.46639 10.7805 7.67179C10.7805 7.67179 10.7805 7.67179 10.7805 7.6718L6.46545 1.14201ZM6.46545 1.14201V1.16562M6.46545 1.14201V1.16562M6.46545 1.16562V2.83074M6.46545 1.16562V2.83074M2.45777 1.6531L2.45778 1.65311C2.72538 1.71507 2.93842 1.80436 3.11114 1.9422C3.28444 2.0805 3.41008 2.26201 3.51199 2.49684L2.45777 1.6531ZM2.45777 1.6531C2.35453 1.62921 2.27472 1.61574 2.19006 1.61814M2.45777 1.6531L2.19006 1.61814M8.04163 1.15769L8.04161 1.15768C7.81691 1.04289 7.57674 1.08416 7.44482 1.23399C7.44482 1.234 7.44481 1.234 7.44481 1.23401L8.04163 1.15769ZM8.04163 1.15769C8.04818 1.16103 8.0544 1.1642 8.06033 1.16722M8.04163 1.15769L8.06033 1.16722M2.8182 8.77863L2.81819 8.77862C2.7704 8.66462 2.74952 8.56484 2.73852 8.16878C2.72749 7.77167 2.72651 7.0624 2.72651 5.71952C2.72651 5.65437 2.72651 5.59061 2.72651 5.52821C2.72657 4.07969 2.7266 3.36413 2.69391 2.99512C2.67659 2.7996 2.65112 2.7225 2.62671 2.68618C2.60719 2.65713 2.58692 2.64848 2.51169 2.61635C2.50915 2.61527 2.50656 2.61416 2.50389 2.61302L2.8182 8.77863ZM2.8182 8.77863C3.13205 9.52718 3.99456 9.84593 4.71921 9.48104M2.8182 8.77863L4.71921 9.48104M6.9479 11.0273L6.86494 10.9714C7.18163 10.5009 7.69432 10.0765 8.13174 9.9359C8.13174 9.93589 8.13175 9.93589 8.13175 9.93589L6.9479 11.0273ZM6.9479 11.0273L6.86494 10.9714C6.75305 11.1377 6.65414 11.3626 6.58311 11.5902C6.51213 11.8177 6.46638 12.0562 6.46601 12.2508C6.46576 12.3858 6.46747 12.4804 6.49001 12.5563C6.51502 12.6406 6.56307 12.6951 6.62408 12.7575C6.70693 12.8422 6.80256 12.9075 6.9202 12.893C7.02868 12.8796 7.12319 12.8004 7.21525 12.6999L7.21526 12.6999M6.9479 11.0273L7.21526 12.6999M7.21526 12.6999C7.26754 12.6428 7.30718 12.588 7.33147 12.5189C7.35517 12.4516 7.36134 12.3789 7.36154 12.2916C7.36241 11.9014 7.55199 11.5007 7.84204 11.1958C8.13241 10.8905 8.51144 10.6935 8.87776 10.6924C8.94559 10.6922 9.01844 10.6899 9.0803 10.6639C9.15254 10.6335 9.19786 10.5771 9.22474 10.5005C9.24947 10.4301 9.26073 10.337 9.26678 10.2195C9.27294 10.1002 9.27401 9.94556 9.27401 9.74732C9.27401 9.72737 9.27401 9.70784 9.27402 9.68873C9.27409 9.50264 9.27414 9.35673 9.26771 9.24485C9.26083 9.12499 9.24609 9.02427 9.2021 8.94989C9.15132 8.86405 9.07258 8.82893 8.98447 8.81447C8.91145 8.80248 8.81811 8.80261 8.71059 8.80275C8.69871 8.80277 8.68665 8.80278 8.67442 8.80278C8.30228 8.80278 7.89064 8.71453 7.65555 8.59045L7.65552 8.59044M7.21526 12.6999L7.65552 8.59044M7.65552 8.59044C7.58879 8.55524 7.47121 8.46235 7.33998 8.34035C7.2111 8.22054 7.07758 8.08068 6.97963 7.95883C6.92381 7.88938 6.89276 7.81099 6.88572 7.75125C6.8814 7.71458 6.88606 7.69788 6.88947 7.69107C6.89144 7.69086 6.89364 7.69063 6.89609 7.6904C6.91237 7.68884 6.93552 7.68724 6.96537 7.68566C7.02484 7.6825 7.10728 7.67962 7.20703 7.67719C7.40634 7.67232 7.67232 7.66929 7.95672 7.66929C8.62827 7.66929 9.03391 7.68846 9.31951 7.75411C9.59618 7.8177 9.75984 7.92486 9.94532 8.11298L9.94803 8.11573C10.0217 8.19046 10.0655 8.23484 10.0982 8.28992C10.1296 8.34284 10.1536 8.41139 10.1704 8.53517C10.2044 8.78638 10.2044 9.22629 10.2044 10.1333V10.169C10.2044 11.0673 10.2024 11.5271 10.1697 11.8541C10.1375 12.1751 10.0759 12.3662 9.95008 12.7294L10.0446 12.7622M7.65552 8.59044L10.0446 12.7622M10.0446 12.7622L9.95008 12.7294C9.65922 13.569 8.8223 14.5082 7.94374 14.973M10.0446 12.7622L7.94374 14.973M6.241 8.5894C6.23896 8.60379 6.22764 8.6269 6.18719 8.65253C6.14724 8.67784 6.08901 8.69843 6.02025 8.70887C5.87847 8.7304 5.73061 8.70401 5.65052 8.63959L5.65051 8.63959C5.59694 8.59651 5.56526 8.56544 5.54158 8.52526C5.51765 8.48466 5.49743 8.4269 5.48252 8.32508C5.45205 8.11699 5.44812 7.76217 5.44812 7.08035C5.44812 6.39852 5.45205 6.0437 5.48252 5.83562C5.49743 5.7338 5.51765 5.67604 5.54158 5.63543C5.56526 5.59526 5.59694 5.56419 5.65051 5.52111L5.65052 5.5211C5.70693 5.47573 5.82229 5.44316 5.95469 5.44178C6.08761 5.44041 6.20055 5.47083 6.2537 5.51354C6.31215 5.56056 6.36639 5.6484 6.40551 5.78875C6.44424 5.92776 6.46545 6.10885 6.46545 6.32946C6.46545 6.44186 6.46267 6.52668 6.45518 6.59145C6.44758 6.65725 6.43598 6.69325 6.42429 6.71356C6.4152 6.72934 6.40503 6.73793 6.38561 6.74471C6.36132 6.75318 6.32361 6.7581 6.26111 6.7581C6.13171 6.7581 6.00693 6.7777 5.93183 6.89108C5.89793 6.94226 5.88028 7.00426 5.87026 7.07189C5.86017 7.13998 5.85678 7.22168 5.85678 7.31753C5.85678 7.68273 5.94839 8.00019 6.15232 8.35591C6.18062 8.40528 6.20509 8.46031 6.22132 8.50811C6.22944 8.53198 6.23499 8.55258 6.23809 8.56868C6.24098 8.58373 6.24079 8.59012 6.24088 8.59012C6.2409 8.59012 6.24093 8.58987 6.241 8.5894ZM6.241 8.5894C6.241 8.58939 6.241 8.58938 6.241 8.58938L6.34002 8.60332L6.241 8.5894ZM6.46545 2.83074C6.46545 3.55877 6.46327 3.975 6.45374 4.21689M6.46545 2.83074L6.45374 4.21689M6.45374 4.21689C6.44896 4.33847 6.44245 4.4113 6.43452 4.45603M6.45374 4.21689L6.43452 4.45603M6.43452 4.45603C6.42984 4.48238 6.42546 4.49384 6.42378 4.49758M6.43452 4.45603L6.42378 4.49758M6.42378 4.49758C6.41794 4.50233 6.39876 4.51363 6.33502 4.52207C6.26215 4.53172 6.14984 4.53562 5.96983 4.53562C5.75667 4.53562 5.62754 4.53714 5.52428 4.55756C5.41481 4.57921 5.33714 4.62141 5.22598 4.68643L5.03735 4.79677L4.79861 4.68254C4.66838 4.62022 4.57661 4.58107 4.46606 4.55965C4.35802 4.53872 4.23628 4.53562 4.04766 4.53562C3.91461 4.53562 3.80878 4.53085 3.73359 4.52238C3.69724 4.51828 3.67046 4.51358 3.65225 4.50893C3.65129 4.50424 3.65026 4.49872 3.6492 4.49225C3.64343 4.45711 3.6383 4.40445 3.63416 4.33051C3.62592 4.18322 3.62213 3.96203 3.62213 3.65013C3.62213 3.23956 3.62067 3.01074 3.60664 2.85741C3.59191 2.69641 3.56279 2.61384 3.51199 2.49685L6.42378 4.49758ZM2.19006 1.61814C2.10604 1.62051 2.02308 1.63836 1.91336 1.66804L2.19006 1.61814ZM8.06033 1.16722C8.13354 1.20447 8.16127 1.21859 8.185 1.25193M8.06033 1.16722L8.185 1.25193M8.185 1.25193C8.21185 1.28967 8.23859 1.36307 8.25691 1.5448M8.185 1.25193L8.25691 1.5448M8.25691 1.5448C8.29146 1.88767 8.29143 2.5441 8.29136 3.87634M8.25691 1.5448L8.29136 3.87634M8.29136 3.87634C8.29135 3.94506 8.29135 4.01559 8.29135 4.08796M8.29136 3.87634L8.29135 4.08796M8.29135 4.08796C8.29139 5.25456 8.28947 5.91264 8.28002 6.28689M8.29135 4.08796L8.28002 6.28689M8.28002 6.28689C8.27528 6.47468 8.2687 6.58727 8.26013 6.65574M8.28002 6.28689L8.26013 6.65574M8.26013 6.65574C8.25569 6.69123 8.25113 6.70969 8.24866 6.71814M8.26013 6.65574L8.24866 6.71814M8.24866 6.71814C8.24434 6.72 8.23742 6.72269 8.22706 6.72581C8.20235 6.73327 8.16825 6.74029 8.12594 6.74621C8.0417 6.758 7.93468 6.76409 7.82594 6.76398C7.7172 6.76387 7.61016 6.75756 7.5259 6.7456C7.48358 6.73959 7.44945 6.7325 7.42471 6.72498C7.41378 6.72166 7.40666 6.71884 7.40237 6.71695L8.24866 6.71814ZM4.71921 9.48104C4.78841 9.44621 4.85947 9.41456 4.91763 9.39179M4.71921 9.48104L4.91763 9.39179M4.91763 9.39179C4.94678 9.38038 4.97162 9.37163 4.99073 9.36585M4.91763 9.39179L4.99073 9.36585M4.99073 9.36585C5.00282 9.3622 5.00998 9.36058 5.01327 9.35987M4.99073 9.36585L5.01327 9.35987M5.01327 9.35987C5.01636 9.36052 5.02306 9.36199 5.03431 9.36535C5.053 9.37091 5.07744 9.37951 5.10624 9.39087C5.16369 9.41352 5.23392 9.44532 5.30226 9.48059C5.41597 9.53928 5.5018 9.57754 5.60134 9.59933C5.69932 9.62078 5.80532 9.62508 5.95726 9.62508C6.14137 9.62508 6.28664 9.61038 6.42681 9.56448C6.56678 9.51865 6.69492 9.44392 6.84794 9.33372C6.91211 9.28753 6.95999 9.27294 7.00113 9.27393L5.01327 9.35987ZM7.52626 9.52681C7.39279 9.47383 7.24858 9.40462 7.16517 9.3439L7.52626 9.52681ZM7.52626 9.52681C7.59426 9.5538 7.66241 9.57774 7.7224 9.59512M7.52626 9.52681L7.7224 9.59512M7.7224 9.59512C7.77936 9.61161 7.83848 9.62508 7.88416 9.62508M7.7224 9.59512L7.88416 9.62508M7.88416 9.62508C7.94548 9.62508 8.06754 9.65443 8.18484 9.69678M7.88416 9.62508L8.18484 9.69678M8.18484 9.69678C8.24163 9.71728 8.29223 9.73902 8.32868 9.75842M8.18484 9.69678L8.32868 9.75842M8.32868 9.75842C8.34417 9.76666 8.35536 9.77357 8.36276 9.77882L8.32868 9.75842ZM7.94374 14.973C7.31685 15.3046 6.91146 15.4117 6.10381 15.4557M7.94374 14.973L6.10381 15.4557M6.10381 15.4557C5.8867 15.4675 5.75968 15.4696 5.59629 15.4475M6.10381 15.4557L5.59629 15.4475M5.59629 15.4475C5.42966 15.4249 5.22384 15.3771 4.85037 15.2849M5.59629 15.4475L4.85037 15.2849M4.85037 15.2849C3.44496 14.9379 2.18948 13.6027 1.86887 12.1045M4.85037 15.2849L1.86887 12.1045M1.86887 12.1045C1.86675 12.0945 1.86317 12.0619 1.85943 11.9974M1.86887 12.1045L1.85943 11.9974M1.85943 11.9974C1.85587 11.936 1.85244 11.8521 1.84918 11.7452M1.85943 11.9974L1.84918 11.7452M1.84918 11.7452C1.84266 11.5315 1.83685 11.2281 1.83174 10.8326M1.84918 11.7452L1.83174 10.8326M1.83174 10.8326C1.82151 10.0415 1.81409 8.88383 1.80926 7.34238M1.83174 10.8326L1.80926 7.34238M1.80926 7.34238L1.79502 2.81617M1.80926 7.34238L1.79502 2.81617M1.79502 2.81617L1.8689 2.72015C1.95099 2.61346 2.03436 2.56029 2.12664 2.54338C2.22215 2.52587 2.34288 2.54425 2.50388 2.61302L1.79502 2.81617ZM8.37118 9.78558C8.3712 9.78564 8.37074 9.78524 8.36994 9.78438L8.37118 9.78558ZM4.45393 5.54666L4.5525 5.64744V7.03772V8.42796L4.41224 8.57141C4.41224 8.57141 4.41223 8.57141 4.41223 8.57141C4.33403 8.65136 4.29925 8.67997 4.26562 8.6946C4.23301 8.7088 4.19217 8.71388 4.08731 8.71388C3.98246 8.71388 3.94161 8.7088 3.90901 8.6946C3.87538 8.67997 3.84059 8.65136 3.7624 8.57141C3.76239 8.57141 3.76239 8.57141 3.76239 8.57141L3.62213 8.42796V7.1064C3.62213 6.66905 3.62233 6.34325 3.63154 6.09909C3.64083 5.85247 3.65915 5.70034 3.69067 5.60469C3.70589 5.55849 3.72271 5.53039 3.73915 5.51218C3.75483 5.49481 3.77391 5.48225 3.80094 5.47277C3.86284 5.45106 3.95146 5.44883 4.10199 5.44815C4.24154 5.44753 4.3022 5.45097 4.34255 5.46321C4.3743 5.47285 4.39753 5.489 4.45393 5.54666Z" fill="#4D4D4D" stroke="#4D4D4D" stroke-width="0.2"/>
</svg>
