<svg width="21" height="21" viewBox="0 0 21 21" fill="none" xmlns="http://www.w3.org/2000/svg">
<path fill-rule="evenodd" clip-rule="evenodd" d="M3.87067 7.15064L13.8427 4.52699C14.5038 4.33999 15.158 4.49588 15.5989 4.9368C16.0398 5.37772 16.1957 6.03181 16.0087 6.69296L13.387 16.6574C13.1148 17.953 11.6187 18.4711 10.736 17.5884C10.736 17.5884 9.07504 15.9256 8.872 15.7235C8.66895 15.5214 8.66613 15.1942 8.8283 15.032C8.99047 14.8699 9.80133 14.059 9.80133 14.059C10.1257 13.7347 10.2818 13.8908 10.1689 14.4266C10.0732 14.8808 10.0259 15.3498 10.1858 15.5097L11.5003 16.8242C11.6682 16.9921 12.1997 17.0077 12.3205 16.4063L12.3236 16.3907L14.9558 6.38608L14.9574 6.3806C15.051 6.05318 14.9587 5.82513 14.8346 5.70107C14.7105 5.57701 14.4825 5.48467 14.155 5.57828L14.1496 5.57984L4.15312 8.20992L4.14584 8.21162C3.92196 8.26392 3.74897 8.43169 3.67258 8.62889C3.59483 8.82963 3.6433 8.96718 3.71151 9.03539C4.06446 9.38834 4.52918 9.85306 5.05987 10.3838C5.23548 10.5594 5.70351 10.5111 6.15227 10.41C6.6816 10.2906 6.82584 10.4348 6.5015 10.7592L5.52847 11.7322C5.3663 11.8944 5.03914 11.8916 4.85533 11.7069C4.35239 11.2043 3.43167 10.2841 2.94724 9.79966C2.48821 9.34063 2.46507 8.70599 2.65404 8.21812C2.84354 7.72886 3.27264 7.29328 3.87067 7.15064Z" fill="#4D4D4D"/>
<path d="M6.85349 12.1845C6.66312 12.3748 8.27984 13.9588 8.37649 13.7075C9.3285 11.2325 12.3742 8.56753 12.184 8.37697C11.9938 8.18641 9.3285 11.2325 6.85349 12.1845Z" fill="#4D4D4D"/>
</svg>
