<svg width="17" height="16" viewBox="0 0 17 16" fill="none" xmlns="http://www.w3.org/2000/svg">
<g clip-path="url(#clip0_808_80975)">
<path d="M13.0268 0.43125C13.5848 -0.126741 14.491 -0.126741 15.0491 0.43125L15.9285 1.31138C16.4866 1.8692 16.4866 2.77455 15.9285 3.33259L14.8482 4.41295L11.9464 1.51161L13.0268 0.43125ZM14.3437 4.91741L9.13837 10.1205C8.90623 10.3527 8.61828 10.5246 8.30355 10.6161L5.61761 11.4062C5.42966 11.4621 5.22632 11.4107 5.0877 11.2522C4.94908 11.1339 4.89725 10.9308 4.95257 10.7411L5.74261 8.0558C5.83547 7.74107 6.00578 7.45312 6.23815 7.22098L11.4419 2.01652L14.3437 4.91741Z" fill="#4D4D4D"/>
</g>
<rect x="1.50226" y="12.5714" width="14.8571" height="2.28571" rx="1.14286" fill="#4D4D4D"/>
<defs>
<clipPath id="clip0_808_80975">
<rect width="11.4286" height="11.4286" fill="white" transform="translate(4.93079)"/>
</clipPath>
</defs>
</svg>
