<svg width="13" height="12" viewBox="0 0 13 12" fill="none" xmlns="http://www.w3.org/2000/svg">
<path fill-rule="evenodd" clip-rule="evenodd" d="M0.249321 11.124C0.134059 11.3545 0.227497 11.6348 0.458021 11.7501C0.688544 11.8654 0.968858 11.7719 1.08412 11.5414L3.47529 6.75906L6.68614 9.67801C6.79424 9.77629 6.94213 9.81827 7.08574 9.79144C7.22936 9.76462 7.35212 9.67208 7.41745 9.54141L9.73642 4.90348L10.6481 5.42982C11.3147 5.81472 12.1481 5.3336 12.1481 4.5638V1.33173C12.1481 1.0121 12.0044 0.742241 11.7887 0.563475C11.7589 0.431666 11.6724 0.313792 11.5421 0.248645C11.3552 0.155207 11.1356 0.198921 10.9977 0.341637C10.8796 0.35984 10.7615 0.400251 10.6481 0.465708L7.84903 2.08174C7.18236 2.46664 7.18236 3.42889 7.84903 3.81379L8.92667 4.43597L6.85815 8.57302L3.6473 5.65407C3.5392 5.5558 3.39131 5.51382 3.2477 5.54064C3.10409 5.56747 2.98132 5.66 2.91599 5.79068L0.249321 11.124Z" fill="#333333"/>
</svg>
