<svg width="17" height="16" viewBox="0 0 17 16" fill="none" xmlns="http://www.w3.org/2000/svg">
<path fill-rule="evenodd" clip-rule="evenodd" d="M3.03667 4.66667C3.03667 2.8 4.50918 1.33333 6.38329 1.33333C8.2574 1.33333 9.72991 2.8 9.72991 4.66667C9.72991 6.53333 8.2574 8 6.38329 8C4.50918 8 3.03667 6.53333 3.03667 4.66667ZM12.4072 12.6667V14C12.4072 14.4 12.1395 14.6667 11.7379 14.6667C11.3363 14.6667 11.0686 14.4 11.0686 14V12.6667C11.0686 11.5333 10.1984 10.6667 9.06059 10.6667H3.706C2.56814 10.6667 1.69802 11.5333 1.69802 12.6667V14C1.69802 14.4 1.43029 14.6667 1.0287 14.6667C0.627105 14.6667 0.359375 14.4 0.359375 14V12.6667C0.359375 10.8 1.83189 9.33333 3.706 9.33333H9.06059C10.9347 9.33333 12.4072 10.8 12.4072 12.6667ZM6.38329 6.66667C5.24544 6.66667 4.37532 5.8 4.37532 4.66667C4.37532 3.53333 5.24544 2.66667 6.38329 2.66667C7.52114 2.66667 8.39126 3.53333 8.39126 4.66667C8.39126 5.8 7.52114 6.66667 6.38329 6.66667ZM13.8797 9.46667C13.5451 9.4 13.1435 9.6 13.0765 9.93333C13.0096 10.2667 13.2104 10.6667 13.5451 10.7333C14.4152 10.9333 15.0176 11.7333 15.0176 12.6667V14C15.0176 14.4 15.2853 14.6667 15.6869 14.6667C16.0885 14.6667 16.3562 14.4 16.3562 14V12.6667C16.4232 11.1333 15.4192 9.8 13.8797 9.46667ZM10.3992 1.93333C10.5331 1.53333 10.8678 1.33333 11.2024 1.46667C13.0096 1.86667 14.0805 3.73333 13.612 5.6C13.3443 6.8 12.4072 7.66667 11.2024 8H11.0686C10.7339 8 10.4662 7.8 10.3992 7.46667C10.2654 7.13333 10.5331 6.73333 10.8678 6.66667C11.604 6.46667 12.1395 5.93333 12.3403 5.2C12.608 4.06667 11.9387 3 10.8678 2.73333C10.5331 2.66667 10.3323 2.26667 10.3992 1.93333Z" fill="black"/>
<mask id="mask0_808_80971" style="mask-type:alpha" maskUnits="userSpaceOnUse" x="0" y="1" width="17" height="14">
<path fill-rule="evenodd" clip-rule="evenodd" d="M3.03667 4.66667C3.03667 2.8 4.50918 1.33333 6.38329 1.33333C8.2574 1.33333 9.72991 2.8 9.72991 4.66667C9.72991 6.53333 8.2574 8 6.38329 8C4.50918 8 3.03667 6.53333 3.03667 4.66667ZM12.4072 12.6667V14C12.4072 14.4 12.1395 14.6667 11.7379 14.6667C11.3363 14.6667 11.0686 14.4 11.0686 14V12.6667C11.0686 11.5333 10.1984 10.6667 9.06059 10.6667H3.706C2.56814 10.6667 1.69802 11.5333 1.69802 12.6667V14C1.69802 14.4 1.43029 14.6667 1.0287 14.6667C0.627105 14.6667 0.359375 14.4 0.359375 14V12.6667C0.359375 10.8 1.83189 9.33333 3.706 9.33333H9.06059C10.9347 9.33333 12.4072 10.8 12.4072 12.6667ZM6.38329 6.66667C5.24544 6.66667 4.37532 5.8 4.37532 4.66667C4.37532 3.53333 5.24544 2.66667 6.38329 2.66667C7.52114 2.66667 8.39126 3.53333 8.39126 4.66667C8.39126 5.8 7.52114 6.66667 6.38329 6.66667ZM13.8797 9.46667C13.5451 9.4 13.1435 9.6 13.0765 9.93333C13.0096 10.2667 13.2104 10.6667 13.5451 10.7333C14.4152 10.9333 15.0176 11.7333 15.0176 12.6667V14C15.0176 14.4 15.2853 14.6667 15.6869 14.6667C16.0885 14.6667 16.3562 14.4 16.3562 14V12.6667C16.4232 11.1333 15.4192 9.8 13.8797 9.46667ZM10.3992 1.93333C10.5331 1.53333 10.8678 1.33333 11.2024 1.46667C13.0096 1.86667 14.0805 3.73333 13.612 5.6C13.3443 6.8 12.4072 7.66667 11.2024 8H11.0686C10.7339 8 10.4662 7.8 10.3992 7.46667C10.2654 7.13333 10.5331 6.73333 10.8678 6.66667C11.604 6.46667 12.1395 5.93333 12.3403 5.2C12.608 4.06667 11.9387 3 10.8678 2.73333C10.5331 2.66667 10.3323 2.26667 10.3992 1.93333Z" fill="white"/>
</mask>
<g mask="url(#mask0_808_80971)">
<rect x="0.359375" width="16" height="16" fill="#4D4D4D"/>
</g>
</svg>
