<svg width="16" height="16" viewBox="0 0 16 16" fill="none" xmlns="http://www.w3.org/2000/svg">
<path fill-rule="evenodd" clip-rule="evenodd" d="M15.6667 4.06667C15.4667 3.93333 15.2 4 15 4.13333L11.3333 6.73333V4.66667C11.3333 3.53333 10.4667 2.66667 9.33333 2.66667H2C0.866667 2.66667 0 3.53333 0 4.66667V11.3333C0 12.4667 0.866667 13.3333 2 13.3333H9.33333C10.4667 13.3333 11.3333 12.4667 11.3333 11.3333V9.26667L14.9333 11.8667C15.0667 11.9333 15.2 12 15.3333 12C15.4667 12 15.5333 12 15.6667 11.9333C15.8667 11.8 16 11.6 16 11.3333V4.66667C16 4.4 15.8667 4.2 15.6667 4.06667ZM10 11.3333C10 11.7333 9.73333 12 9.33333 12H2C1.6 12 1.33333 11.7333 1.33333 11.3333V4.66667C1.33333 4.26667 1.6 4 2 4H9.33333C9.73333 4 10 4.26667 10 4.66667V11.3333ZM11.8 8L14.6667 10.0667V5.93333L11.8 8Z" fill="black"/>
<path d="M7.49998 7.66667C7.49998 8.67919 6.67917 9.5 5.66665 9.5C4.65412 9.5 3.83331 8.67919 3.83331 7.66667C3.83331 6.65415 4.65412 5.83333 5.66665 5.83333C6.67917 5.83333 7.49998 6.65415 7.49998 7.66667Z" fill="#FF0000" stroke="#FF0000"/>
<mask id="mask0_808_80969" style="mask-type:alpha" maskUnits="userSpaceOnUse" x="0" y="2" width="16" height="12">
<path fill-rule="evenodd" clip-rule="evenodd" d="M15.6667 4.06667C15.4667 3.93333 15.2 4 15 4.13333L11.3333 6.73333V4.66667C11.3333 3.53333 10.4667 2.66667 9.33333 2.66667H2C0.866667 2.66667 0 3.53333 0 4.66667V11.3333C0 12.4667 0.866667 13.3333 2 13.3333H9.33333C10.4667 13.3333 11.3333 12.4667 11.3333 11.3333V9.26667L14.9333 11.8667C15.0667 11.9333 15.2 12 15.3333 12C15.4667 12 15.5333 12 15.6667 11.9333C15.8667 11.8 16 11.6 16 11.3333V4.66667C16 4.4 15.8667 4.2 15.6667 4.06667ZM10 11.3333C10 11.7333 9.73333 12 9.33333 12H2C1.6 12 1.33333 11.7333 1.33333 11.3333V4.66667C1.33333 4.26667 1.6 4 2 4H9.33333C9.73333 4 10 4.26667 10 4.66667V11.3333ZM11.8 8L14.6667 10.0667V5.93333L11.8 8Z" fill="white"/>
</mask>
<g mask="url(#mask0_808_80969)">
<rect width="16" height="16" fill="#4D4D4D"/>
</g>
</svg>
