<svg width="20" height="16" viewBox="0 0 20 16" fill="none" xmlns="http://www.w3.org/2000/svg">
<path d="M8 12H6.5V10.9047C9.05937 10.4344 11 8.19687 11 5.5C11 2.4625 8.5375 0 5.5 0C2.4625 0 0 2.4625 0 5.5C0 8.19563 1.94062 10.4344 4.5 10.8781V11.9734H3C2.72388 11.9734 2.5 12.1972 2.5 12.4734V13.4734C2.5 13.7496 2.72388 13.9734 3 13.9734H4.5V15.4734C4.5 15.7496 4.72388 15.9734 5 15.9734H6C6.27619 15.9734 6.5 15.7496 6.5 15.4734V13.9734H8C8.27619 13.9734 8.5 13.7496 8.5 13.4734V12.4734C8.5 12.225 8.275 12 8 12ZM5.5 8.5C3.84594 8.5 2.5 7.15406 2.5 5.5C2.5 3.84562 3.84594 2.5 5.5 2.5C7.15438 2.5 8.5 3.84562 8.5 5.5C8.5 7.15312 7.15312 8.5 5.5 8.5ZM19.5 0H15.9875C15.3194 0 14.9847 0.807813 15.4572 1.28031L16.3809 2.20406L15.6138 2.97125C14.6772 2.32562 13.5884 2.00094 12.4969 2.00094C12.0225 2.00094 11.5462 2.07047 11.0847 2.19256C11.5081 2.90506 11.7978 3.70381 11.9228 4.55725C12.1131 4.52025 12.3063 4.50147 12.4994 4.50147C13.2675 4.50147 14.0359 4.79388 14.6206 5.37866C15.7903 6.54834 15.7903 8.45147 14.6206 9.62241C14.0359 10.2071 13.2675 10.4996 12.4994 10.4996C11.7634 10.4996 11.0319 10.2236 10.4572 9.68678C9.95969 10.2755 9.36563 10.7837 8.68375 11.1665C9.04156 11.3508 9.31406 11.6758 9.43281 12.0671C10.3594 12.6875 11.4281 13 12.5 13C13.9075 13 15.315 12.4631 16.3906 11.3891C18.2966 9.48313 18.5072 6.52656 17.0303 4.38594L17.7975 3.61875L18.7213 4.5425C18.874 4.69528 19.0619 4.76369 19.2463 4.76369C19.6313 4.7625 20 4.4625 20 4.0125V0.5C20 0.223875 19.775 0 19.5 0Z" fill="#81C14B"/>
</svg>
