<svg width="18" height="18" viewBox="0 0 18 18" fill="none" xmlns="http://www.w3.org/2000/svg">
<path d="M16.5 11.955C16.0642 11.955 15.6283 12.0808 15.25 12.3333C14.8798 12.5801 14.4449 12.7118 14 12.7118C13.5551 12.7118 13.1202 12.5801 12.75 12.3333C12.3798 12.0865 11.9449 11.9548 11.5 11.9548C11.0551 11.9548 10.6202 12.0865 10.25 12.3333C9.87983 12.5801 9.4449 12.7118 9 12.7118C8.5551 12.7118 8.12017 12.5801 7.75 12.3333C7.37983 12.0865 6.9449 11.9548 6.5 11.9548C6.0551 11.9548 5.62017 12.0865 5.25 12.3333C4.87983 12.5801 4.4449 12.7118 4 12.7118C3.5551 12.7118 3.12017 12.5801 2.75 12.3333C2.37988 12.0865 1.9449 11.9548 1.5 11.955H16.5ZM6.5 4V5.66667V4ZM9 4V5.66667V4ZM11.5 4V5.66667V4ZM6.5 1.5H6.50833H6.5ZM9 1.5H9.00833H9ZM11.5 1.5H11.5083H11.5ZM16.5 16.5V10.6667C16.5 10.2246 16.3244 9.80072 16.0118 9.48816C15.6993 9.17559 15.2754 9 14.8333 9H3.16667C2.72464 9 2.30072 9.17559 1.98816 9.48816C1.67559 9.80072 1.5 10.2246 1.5 10.6667V16.5H16.5ZM14 9V7.33333C14 6.89131 13.8244 6.46738 13.5118 6.15482C13.1993 5.84226 12.7754 5.66667 12.3333 5.66667H5.66667C5.22464 5.66667 4.80072 5.84226 4.48816 6.15482C4.17559 6.46738 4 6.89131 4 7.33333V9H14Z" stroke="#81C14B" stroke-width="2" stroke-linecap="round" stroke-linejoin="round"/>
</svg>
